<svg xmlns="http://www.w3.org/2000/svg" viewBox="0 0 202.196 35.581"><defs><style>.a,.b{fill:#fff;}.b{fill-rule:evenodd;}</style></defs><title>logo-white</title><path class="a" d="M15.409,30.709c0,2.9-2.3,4.584-6.72,4.584H0v-16.8H8.208c4.2,0,6.361,1.753,6.361,4.369a4.04,4.04,0,0,1-2.232,3.7A4.149,4.149,0,0,1,15.409,30.709ZM3.864,21.42v3.96H7.729c1.9,0,2.928-.672,2.928-1.992S9.625,21.42,7.729,21.42H3.864ZM11.5,30.3c0-1.416-1.08-2.089-3.1-2.089H3.864v4.152H8.4C10.417,32.364,11.5,31.74,11.5,30.3Z" transform="translate(0 0)"/><path class="a" d="M17.856,27.9V18.491h3.888v9.265c0,3.192,1.392,4.513,3.745,4.513,2.376,0,3.744-1.32,3.744-4.513V18.491h3.84V27.9c0,4.944-2.832,7.681-7.608,7.681S17.856,32.845,17.856,27.9Z" transform="translate(0 0)"/><path class="a" d="M35.944,26.892c0-4.993,3.888-8.689,9.193-8.689,5.28,0,9.193,3.673,9.193,8.689s-3.913,8.688-9.193,8.688C39.832,35.581,35.944,31.885,35.944,26.892Zm14.449,0a5.258,5.258,0,1,0-10.513,0A5.258,5.258,0,1,0,50.393,26.892Z" transform="translate(0 0)"/><path class="a" d="M72.409,18.491v16.8H69.217l-8.376-10.2v10.2H57v-16.8h3.216l8.353,10.2v-10.2h3.84Z" transform="translate(0 0)"/><path class="a" d="M79.888,21.611v4.44h7.777v3.121H79.888v6.12H76v-16.8H88.7v3.12H79.888Z" transform="translate(0 0)"/><path class="a" d="M102.065,31.692h-7.8l-1.488,3.6H88.792l7.488-16.8h3.84l7.513,16.8h-4.08Zm-1.224-2.952-2.664-6.433L95.512,28.74h5.329Z" transform="translate(0 0)"/><path class="a" d="M119.705,35.293l-3.24-4.681h-3.576v4.681H109v-16.8h7.272c4.488,0,7.3,2.328,7.3,6.1a5.463,5.463,0,0,1-3.456,5.3l3.768,5.4h-4.176ZM116.057,21.66h-3.168v5.856h3.168c2.376,0,3.576-1.1,3.576-2.929C119.633,22.74,118.433,21.66,116.057,21.66Z" transform="translate(0 0)"/><path class="a" d="M142.289,35.293l-0.023-10.081-4.944,8.3h-1.753l-4.92-8.089v9.865H127v-16.8h3.216L136.5,28.932,142.7,18.491h3.192l0.048,16.8h-3.648Z" transform="translate(0 0)"/><path class="a" d="M163.009,32.173v3.12H150v-16.8h12.7v3.12h-8.833V25.26h7.8v3.024h-7.8v3.889h9.145Z" transform="translate(0 0)"/><path class="a" d="M176.705,35.293l-3.24-4.681h-3.576v4.681H166v-16.8h7.272c4.488,0,7.3,2.328,7.3,6.1a5.463,5.463,0,0,1-3.456,5.3l3.768,5.4h-4.176ZM173.057,21.66h-3.168v5.856h3.168c2.376,0,3.576-1.1,3.576-2.929C176.633,22.74,175.433,21.66,173.057,21.66Z" transform="translate(0 0)"/><path class="a" d="M182.68,33.637L184,30.709a9.889,9.889,0,0,0,5.545,1.752c2.3,0,3.24-.769,3.24-1.8,0-3.144-9.77-.983-9.77-7.225,0-2.855,2.3-5.232,7.081-5.232a11.274,11.274,0,0,1,5.832,1.488l-1.2,2.952a9.489,9.489,0,0,0-4.656-1.319c-2.3,0-3.192.863-3.192,1.92,0,3.1,9.77.96,9.77,7.128,0,2.809-2.328,5.209-7.129,5.209A11.975,11.975,0,0,1,182.68,33.637Z" transform="translate(0 0)"/><path class="b" d="M182.6,0c-3.227,9.452,2.563,13.418,7,15.464,0.383,0.174-3.883-4.667-3.848-9.418,0.858,4.076,5.277,8.092,6.067,10.356C194.741,5,186.447,1.978,182.6,0Zm10.093,15.435c1.062-.93,4.508-1.664,6.126-3.512-1.352,2.467-4.956,3.676-4.707,3.7,2.888,0.292,7.026,0,8.085-5.871C199.637,9.607,194.474,8.648,192.694,15.435Z" transform="translate(0 0)"/></svg>